<?xml version="1.0" encoding="UTF-8" standalone="no"?>
<svg
   xmlns:dc="http://purl.org/dc/elements/1.1/"
   xmlns:cc="http://creativecommons.org/ns#"
   xmlns:rdf="http://www.w3.org/1999/02/22-rdf-syntax-ns#"
   xmlns:svg="http://www.w3.org/2000/svg"
   xmlns="http://www.w3.org/2000/svg"
   xmlns:sodipodi="http://sodipodi.sourceforge.net/DTD/sodipodi-0.dtd"
   xmlns:inkscape="http://www.inkscape.org/namespaces/inkscape"
   sodipodi:docname="logo.svg"
   inkscape:version="1.0 (4035a4fb49, 2020-05-01)"
   id="svg8"
   version="1.1"
   viewBox="0 0 77.933731 89.631416"
   height="89.631416mm"
   width="77.933731mm">
  <defs
     id="defs2">
    <clipPath
       clipPathUnits="userSpaceOnUse"
       id="clipPath977">
      <path
         d="M 0,0 H 1562.5 V 1593.75 H 0 Z"
         clip-rule="evenodd"
         id="path975" />
    </clipPath>
    <clipPath
       clipPathUnits="userSpaceOnUse"
       id="clipPath991">
      <path
         d="M 0,0 H 1562.5 V 1562.5 H 0 Z"
         clip-rule="evenodd"
         id="path989" />
    </clipPath>
    <clipPath
       clipPathUnits="userSpaceOnUse"
       id="clipPath1003">
      <path
         d="M 0,0 H 1562.5 V 1562.5 H 0 Z"
         clip-rule="evenodd"
         id="path1001" />
    </clipPath>
    <clipPath
       clipPathUnits="userSpaceOnUse"
       id="clipPath1017">
      <path
         d="M 440.14984,237.02664 H 1119.8726 V 916.74942 H 440.14984 Z"
         clip-rule="evenodd"
         id="path1015" />
    </clipPath>
  </defs>
  <sodipodi:namedview
     inkscape:window-maximized="1"
     inkscape:window-y="-8"
     inkscape:window-x="-8"
     inkscape:window-height="1017"
     inkscape:window-width="1920"
     fit-margin-bottom="0"
     fit-margin-right="0"
     fit-margin-left="0"
     fit-margin-top="0"
     inkscape:pagecheckerboard="true"
     showgrid="false"
     inkscape:document-rotation="0"
     inkscape:current-layer="g999"
     inkscape:document-units="mm"
     inkscape:cy="345.93845"
     inkscape:cx="324.22098"
     inkscape:zoom="0.98994949"
     inkscape:pageshadow="2"
     inkscape:pageopacity="0.0"
     borderopacity="1.0"
     bordercolor="#666666"
     pagecolor="#ffffff"
     id="base" />
  <metadata
     id="metadata5">
    <rdf:RDF>
      <cc:Work
         rdf:about="">
        <dc:format>image/svg+xml</dc:format>
        <dc:type
           rdf:resource="http://purl.org/dc/dcmitype/StillImage" />
        <dc:title></dc:title>
      </cc:Work>
    </rdf:RDF>
  </metadata>
  <g
     transform="translate(-63.601511,-69.016176)"
     id="layer1"
     inkscape:groupmode="layer"
     inkscape:label="Layer 1">
    <g
       transform="matrix(0.08466666,0,0,0.08466666,35.151791,48.947922)"
       id="g997">
      <g
         clip-path="url(#clipPath1003)"
         id="g999">
        <path
           id="path1080"
           d="m 407.16427,1293.612 h -71.14394 v -98.6344 h 25.43694 v 79.5567 h 45.707 z"
           style="font-variant:normal;font-weight:bold;font-size:24.15px;font-family:Raleway;-inkscape-font-specification:Raleway-Bold;writing-mode:lr-tb;fill:#5ce1e6;fill-opacity:1;fill-rule:nonzero;stroke:none;stroke-width:5.61754" />
        <path
           id="path1082"
           d="m 582.9949,1257.9075 q 0,18.2828 -11.12866,28.0204 -11.12866,9.7376 -32.7898,9.7376 -21.66114,0 -32.78981,-9.7376 -11.06242,-9.7376 -11.06242,-27.9541 v -62.9962 h 25.56943 v 61.5389 q 0,10.2675 4.30573,15.3019 4.30573,5.0344 13.97707,5.0344 9.53885,0 13.91082,-4.8357 4.43822,-4.8357 4.43822,-15.5006 v -61.5389 h 25.56942 z"
           style="font-variant:normal;font-weight:bold;font-size:24.15px;font-family:Raleway;-inkscape-font-specification:Raleway-Bold;writing-mode:lr-tb;fill:#5ce1e6;fill-opacity:1;fill-rule:nonzero;stroke:none;stroke-width:5.61754" />
        <path
           id="path1084"
           d="m 783.12544,1293.612 h -25.30445 v -66.0433 l -18.2828,42.8586 h -17.55413 l -18.2828,-42.8586 v 66.0433 h -23.97961 v -98.6344 h 29.54394 l 22.19107,49.4828 22.12484,-49.4828 h 29.54394 z"
           style="font-variant:normal;font-weight:bold;font-size:24.15px;font-family:Raleway;-inkscape-font-specification:Raleway-Bold;writing-mode:lr-tb;fill:#5ce1e6;fill-opacity:1;fill-rule:nonzero;stroke:none;stroke-width:5.61754" />
        <path
           id="path1086"
           d="m 931.7481,1293.612 h -57.76307 v -17.4879 h 16.16303 v -63.6586 h -16.16303 v -17.4879 h 57.76307 v 17.4879 h -16.16307 v 63.6586 h 16.16307 z"
           style="font-variant:normal;font-weight:bold;font-size:24.15px;font-family:Raleway;-inkscape-font-specification:Raleway-Bold;writing-mode:lr-tb;fill:#5ce1e6;fill-opacity:1;fill-rule:nonzero;stroke:none;stroke-width:5.61754" />
        <path
           id="path1088"
           d="m 1069.9488,1293.612 h -71.34266 v -98.6344 h 71.34266 v 19.0777 h -46.0382 v 17.0242 h 42.7261 v 19.0777 h -42.7261 v 24.3771 h 46.0382 z"
           style="font-variant:normal;font-weight:bold;font-size:24.15px;font-family:Raleway;-inkscape-font-specification:Raleway-Bold;writing-mode:lr-tb;fill:#5ce1e6;fill-opacity:1;fill-rule:nonzero;stroke:none;stroke-width:5.61754" />
        <path
           id="path1090"
           d="m 1216.8185,1225.184 q 0,-3.7096 -1.5235,-6.3592 -1.5236,-2.6497 -5.2331,-4.1733 -2.5835,-1.0599 -6.0281,-1.2586 -3.4446,-0.265 -8.0152,-0.265 h -9.2077 v 26.5631 h 7.8166 q 6.0942,0 10.2012,-0.5962 4.1071,-0.5962 6.8892,-2.7159 2.6497,-2.0535 3.8421,-4.5045 1.2585,-2.5172 1.2585,-6.6904 z m 39.679,68.428 H 1225.43 l -26.8943,-36.1681 h -11.7248 v 36.1681 h -25.3044 v -98.6344 h 42.6598 q 8.744,0 15.0369,0.9937 6.293,0.9936 11.7911,4.3057 5.5644,3.3121 8.8102,8.6114 3.3121,5.2332 3.3121,13.1822 0,10.9299 -5.1006,17.8191 -5.0344,6.8892 -14.4407,11.4599 z"
           style="font-variant:normal;font-weight:bold;font-size:24.15px;font-family:Raleway;-inkscape-font-specification:Raleway-Bold;writing-mode:lr-tb;fill:#5ce1e6;fill-opacity:1;fill-rule:nonzero;stroke:none;stroke-width:5.61754" />
      </g>
    </g>
    <g
       transform="matrix(0.08466666,0,0,0.08466666,35.151791,48.947922)"
       id="g1011">
      <g
         clip-path="url(#clipPath1017)"
         id="g1013">
        <g
           transform="matrix(1.835314,0,0,1.8445663,441.85461,237.02664)"
           id="g1019">
          <path
             id="path1021"
             style="fill:#5ce1e6;fill-opacity:1;fill-rule:nonzero;stroke:none"
             d="m 161,81 c 0,2.636475 -0.12921,5.266602 -0.38762,7.890381 -0.25842,2.623779 -0.64482,5.228577 -1.15918,7.814384 -0.51434,2.585816 -1.15419,5.140195 -1.91952,7.663145 -0.76534,2.52295 -1.65247,5.00231 -2.66141,7.4381 -1.00893,2.43579 -2.1348,4.81627 -3.37763,7.14142 -1.24282,2.32517 -2.59661,4.58382 -4.06135,6.77597 -1.46474,2.19215 -3.03339,4.30724 -4.70595,6.34525 -1.67256,2.03804 -3.44098,3.98918 -5.30525,5.85344 -1.86427,1.86427 -3.81542,3.63267 -5.85344,5.30523 -2.03801,1.67257 -4.1531,3.24123 -6.34526,4.70597 -2.19215,1.46475 -4.4508,2.81854 -6.77596,4.06137 -2.32517,1.24284 -4.70565,2.36871 -7.14143,3.37764 -2.43578,1.00893 -4.91514,1.89606 -7.43809,2.66139 -2.52295,0.76534 -5.077329,1.40517 -7.663152,1.91953 -2.585808,0.51435 -5.190605,0.90074 -7.814377,1.15916 C 85.766602,161.37079 83.136475,161.5 80.5,161.5 c -2.636475,0 -5.266602,-0.12921 -7.890381,-0.38762 -2.623779,-0.25842 -5.228577,-0.64481 -7.814392,-1.15916 -2.585815,-0.51436 -5.140198,-1.15419 -7.663147,-1.91953 -2.522949,-0.76533 -5.002315,-1.65246 -7.438103,-2.66139 -2.435783,-1.00893 -4.816253,-2.1348 -7.141414,-3.37764 -2.325169,-1.24283 -4.583824,-2.59662 -6.775971,-4.06136 -2.19215,-1.46475 -4.307234,-3.03341 -6.345253,-4.70598 -2.038023,-1.67256 -3.989168,-3.44096 -5.853437,-5.30523 -1.864268,-1.86426 -3.632683,-3.8154 -5.305245,-5.85343 -1.672561,-2.03801 -3.241215,-4.15309 -4.705963,-6.34526 -1.464746,-2.19214 -2.818532,-4.45079 -4.0613572,-6.77595 C 8.2625113,116.62228 7.1366315,114.2418 6.1276965,111.80602 5.118762,109.37023 4.2316303,106.89086 3.4663024,104.36792 2.7009745,101.84496 2.0611353,99.290581 1.5467846,96.704765 1.0324341,94.118958 0.64604908,91.51416 0.38762945,88.890381 0.12920982,86.266602 0,83.636475 0,81 0,78.363525 0.12920982,75.733398 0.38762945,73.109619 0.64604908,70.48584 1.0324341,67.881042 1.5467846,65.295219 c 0.5143507,-2.585811 1.1541901,-5.14019 1.919518,-7.663139 0.7653277,-2.522945 1.6524594,-5.002312 2.6613939,-7.438099 1.008935,-2.435779 2.1348148,-4.816253 3.3776403,-7.141418 1.2428252,-2.325161 2.5966112,-4.583821 4.0613572,-6.775971 1.464748,-2.192146 3.033402,-4.30723 4.705963,-6.345253 1.672562,-2.038023 3.440977,-3.989168 5.305245,-5.853435 1.864269,-1.864268 3.815414,-3.632683 5.853437,-5.305245 2.038023,-1.672561 4.153107,-3.241216 6.345257,-4.705964 2.19215,-1.464745 4.450806,-2.818532 6.775967,-4.061357 2.325161,-1.2428258 4.705635,-2.368706 7.141418,-3.377641 2.435787,-1.008935 4.915154,-1.8960662 7.438103,-2.6613944 2.522945,-0.7653279 5.077328,-1.4051673 7.663143,-1.919518 C 67.381042,1.5324342 69.98584,1.1460491 72.609619,0.88762945 75.233398,0.62920982 77.863525,0.5 80.5,0.5 c 2.636475,0 5.266602,0.12920982 7.890381,0.38762945 2.623779,0.25841965 5.228577,0.64480475 7.814384,1.15915515 2.585823,0.5143507 5.140205,1.1541901 7.663145,1.9195183 2.52295,0.7653279 5.00231,1.6524591 7.43809,2.6613941 2.43578,1.008935 4.81626,2.1348152 7.14143,3.377641 2.32516,1.242825 4.58381,2.596611 6.77596,4.061356 2.19216,1.464749 4.30725,3.033404 6.34526,4.705965 2.03802,1.672562 3.98917,3.440977 5.85344,5.305245 1.86427,1.864267 3.63269,3.815414 5.30525,5.853437 1.67256,2.038021 3.24121,4.153105 4.70595,6.345251 1.46474,2.19215 2.81853,4.45081 4.06135,6.775971 1.24283,2.325161 2.3687,4.705635 3.37763,7.141414 1.00894,2.435788 1.89607,4.915158 2.66141,7.438107 0.76533,2.522945 1.40518,5.077324 1.91952,7.663135 0.51436,2.585823 0.90076,5.190621 1.15918,7.8144 C 160.87079,75.733398 161,78.363525 161,81 Z" />
          <path
             id="path1023"
             style="fill:#ff6200;fill-opacity:1;fill-rule:nonzero;stroke:none"
             d="m 161,288 c 0,2.63647 -0.12921,5.2666 -0.38762,7.89035 -0.25842,2.62378 -0.64482,5.22858 -1.15918,7.81439 -0.51434,2.58582 -1.15419,5.1402 -1.91952,7.66318 -0.76534,2.52292 -1.65247,5.00229 -2.66141,7.43805 -1.00893,2.43582 -2.1348,4.81628 -3.37763,7.14145 -1.24282,2.32516 -2.59661,4.5838 -4.06135,6.77597 -1.46474,2.19217 -3.03339,4.30725 -4.70595,6.34527 -1.67256,2.038 -3.44098,3.98914 -5.30525,5.85343 -1.86427,1.86426 -3.81542,3.63266 -5.85344,5.30524 -2.03801,1.67257 -4.1531,3.24121 -6.34526,4.70596 -2.19215,1.46475 -4.4508,2.81854 -6.77596,4.06137 -2.32517,1.24283 -4.70565,2.36868 -7.14143,3.37759 -2.43578,1.00898 -4.91514,1.89612 -7.43809,2.66144 -2.52295,0.76535 -5.077329,1.40518 -7.663152,1.9195 -2.585808,0.51437 -5.190605,0.90075 -7.814377,1.15918 C 85.766602,368.37079 83.136475,368.5 80.5,368.5 c -2.636475,0 -5.266602,-0.12921 -7.890381,-0.38763 -2.623779,-0.25843 -5.228577,-0.64481 -7.814392,-1.15918 -2.585815,-0.51432 -5.140198,-1.15415 -7.663147,-1.9195 -2.522949,-0.76532 -5.002315,-1.65246 -7.438103,-2.66144 -2.435783,-1.00891 -4.816253,-2.13476 -7.141414,-3.37759 -2.325169,-1.24283 -4.583824,-2.59662 -6.775971,-4.06137 -2.19215,-1.46475 -4.307234,-3.03339 -6.345253,-4.70596 -2.038023,-1.67258 -3.989168,-3.44098 -5.853437,-5.30524 -1.864268,-1.86429 -3.632683,-3.81543 -5.305245,-5.85343 -1.672561,-2.03802 -3.241215,-4.1531 -4.705963,-6.34527 -1.464746,-2.19217 -2.818532,-4.45081 -4.0613572,-6.77597 C 8.2625113,323.62225 7.1366315,321.24179 6.1276965,318.80597 5.118762,316.37021 4.2316303,313.89084 3.4663024,311.36792 2.7009745,308.84494 2.0611353,306.29056 1.5467846,303.70474 1.0324341,301.11893 0.64604908,298.51413 0.38762945,295.89035 0.12920982,293.2666 0,290.63647 0,288 c 0,-2.63647 0.12920982,-5.2666 0.38762945,-7.89041 0.25841963,-2.62375 0.64480465,-5.22855 1.15915515,-7.81436 0.5143507,-2.58582 1.1541901,-5.1402 1.919518,-7.66315 0.7653277,-2.52295 1.6524594,-5.00232 2.6613939,-7.43811 1.008935,-2.43578 2.1348148,-4.81625 3.3776403,-7.14142 1.2428252,-2.32515 2.5966112,-4.58382 4.0613572,-6.77598 1.464748,-2.19213 3.033402,-4.30721 4.705963,-6.34523 1.672562,-2.03801 3.440977,-3.98917 5.305245,-5.85344 1.864269,-1.86426 3.815414,-3.63268 5.853437,-5.30526 2.038023,-1.67256 4.153107,-3.24121 6.345257,-4.70597 2.19215,-1.46474 4.450806,-2.81852 6.775967,-4.06134 2.325161,-1.24282 4.705635,-2.3687 7.141418,-3.37764 2.435787,-1.00893 4.915154,-1.89606 7.438103,-2.6614 2.522945,-0.76533 5.077328,-1.40516 7.663143,-1.91952 2.585815,-0.51433 5.190613,-0.90071 7.814392,-1.15914 2.623779,-0.2584 5.253906,-0.38761 7.890381,-0.38763 2.636475,2e-5 5.266602,0.12923 7.890381,0.38763 2.623779,0.25843 5.228577,0.64481 7.814384,1.15914 2.585823,0.51436 5.140205,1.1542 7.663145,1.91954 2.52295,0.76532 5.00231,1.65245 7.43809,2.66138 2.43578,1.00894 4.81626,2.13482 7.14143,3.37764 2.32516,1.24282 4.58381,2.5966 6.77596,4.06134 2.19216,1.46476 4.30725,3.03341 6.34526,4.70597 2.03802,1.67258 3.98917,3.441 5.85344,5.30526 1.86427,1.86427 3.63269,3.81543 5.30525,5.85344 1.67256,2.03802 3.24121,4.1531 4.70595,6.34523 1.46474,2.19216 2.81853,4.45083 4.06135,6.77598 1.24283,2.32517 2.3687,4.70564 3.37763,7.14142 1.00894,2.43579 1.89607,4.91516 2.66141,7.43811 0.76533,2.52295 1.40518,5.07733 1.91952,7.66315 0.51436,2.58581 0.90076,5.19061 1.15918,7.81436 C 160.87079,282.7334 161,285.36353 161,288 Z" />
          <path
             id="path1025"
             style="fill:#ff6200;fill-opacity:1;fill-rule:nonzero;stroke:none"
             d="m 368.5,80.5 c 0,2.636475 -0.12921,5.266602 -0.38763,7.890381 -0.25843,2.623779 -0.64481,5.228577 -1.15918,7.814384 -0.51432,2.585823 -1.15415,5.140205 -1.9195,7.663145 -0.76532,2.52295 -1.65246,5.00231 -2.66144,7.43809 -1.00891,2.43578 -2.13476,4.81626 -3.37759,7.14143 -1.24283,2.32516 -2.59662,4.58381 -4.06137,6.77596 -1.46475,2.19216 -3.03339,4.30725 -4.70596,6.34526 -1.67258,2.03802 -3.44098,3.98917 -5.30524,5.85344 -1.86429,1.86427 -3.81543,3.63269 -5.85343,5.30525 -2.03802,1.67256 -4.1531,3.24121 -6.34527,4.70595 -2.19217,1.46474 -4.45081,2.81853 -6.77597,4.06135 -2.32517,1.24283 -4.70563,2.3687 -7.14145,3.37763 -2.43576,1.00894 -4.91513,1.89607 -7.43805,2.66141 -2.52298,0.76533 -5.07736,1.40518 -7.66318,1.91952 -2.58581,0.51436 -5.19061,0.90076 -7.81439,1.15918 C 293.2666,160.87079 290.63647,161 288,161 c -2.63647,0 -5.2666,-0.12921 -7.89041,-0.38762 -2.62375,-0.25842 -5.22855,-0.64482 -7.81436,-1.15918 -2.58582,-0.51434 -5.1402,-1.15419 -7.66315,-1.91952 -2.52295,-0.76534 -5.00232,-1.65247 -7.43811,-2.66141 -2.43578,-1.00893 -4.81625,-2.1348 -7.14142,-3.37763 -2.32515,-1.24282 -4.58382,-2.59661 -6.77598,-4.06135 -2.19213,-1.46474 -4.30721,-3.03339 -6.34523,-4.70595 -2.03801,-1.67256 -3.98917,-3.44098 -5.85344,-5.30525 -1.86426,-1.86427 -3.63268,-3.81542 -5.30526,-5.85344 -1.67256,-2.03801 -3.24121,-4.1531 -4.70597,-6.34526 -1.46474,-2.19215 -2.81852,-4.4508 -4.06134,-6.77596 -1.24282,-2.32517 -2.3687,-4.70565 -3.37764,-7.14143 -1.00893,-2.43578 -1.89606,-4.91514 -2.6614,-7.43809 -0.76533,-2.52295 -1.40516,-5.077329 -1.91952,-7.663152 -0.51433,-2.585808 -0.90071,-5.190605 -1.15914,-7.814377 C 207.62923,85.766602 207.50002,83.136475 207.5,80.5 c 2e-5,-2.636475 0.12923,-5.266602 0.38763,-7.890381 0.25843,-2.623779 0.64481,-5.228577 1.15914,-7.814392 0.51436,-2.585815 1.1542,-5.140198 1.91954,-7.663147 0.76532,-2.522949 1.65245,-5.002315 2.66138,-7.438103 1.00894,-2.435783 2.13482,-4.816253 3.37764,-7.141414 1.24282,-2.325169 2.5966,-4.583824 4.06134,-6.775971 1.46476,-2.19215 3.03341,-4.307234 4.70597,-6.345253 1.67258,-2.038023 3.441,-3.989168 5.30526,-5.853437 1.86427,-1.864268 3.81543,-3.632683 5.85344,-5.305245 2.03802,-1.672561 4.1531,-3.241215 6.34523,-4.705963 2.19216,-1.464746 4.45083,-2.818532 6.77598,-4.0613572 2.32517,-1.2428255 4.70564,-2.3687053 7.14142,-3.3776403 2.43579,-1.0089345 4.91516,-1.8960662 7.43811,-2.6613941 2.52295,-0.7653279 5.07733,-1.4051671 7.66315,-1.9195178 2.58581,-0.5143505 5.19061,-0.90073552 7.81436,-1.15915515 C 282.7334,0.12920982 285.36353,0 288,0 c 2.63647,0 5.2666,0.12920982 7.89035,0.38762945 2.62378,0.25841963 5.22858,0.64480465 7.81439,1.15915515 2.58582,0.5143507 5.1402,1.1541901 7.66318,1.919518 2.52292,0.7653277 5.00229,1.6524594 7.43805,2.6613939 2.43582,1.008935 4.81628,2.1348148 7.14145,3.3776403 2.32516,1.2428252 4.5838,2.5966112 6.77597,4.0613572 2.19217,1.464748 4.30725,3.033402 6.34527,4.705963 2.038,1.672562 3.98914,3.440977 5.85343,5.305245 1.86426,1.864269 3.63266,3.815414 5.30524,5.853437 1.67257,2.038023 3.24121,4.153107 4.70596,6.345257 1.46475,2.19215 2.81854,4.450806 4.06137,6.775967 1.24283,2.325161 2.36868,4.705635 3.37759,7.141418 1.00898,2.435787 1.89612,4.915154 2.66144,7.438103 0.76535,2.522945 1.40518,5.077328 1.9195,7.663143 0.51437,2.585815 0.90075,5.190613 1.15918,7.814392 C 368.37079,75.233398 368.5,77.863525 368.5,80.5 Z" />
          <path
             id="path1027"
             style="fill:#5ce1e6;fill-opacity:1;fill-rule:nonzero;stroke:none"
             d="m 368.5,288 c 0,2.63647 -0.12921,5.2666 -0.38763,7.89035 -0.25843,2.62378 -0.64481,5.22858 -1.15918,7.81439 -0.51432,2.58582 -1.15415,5.1402 -1.9195,7.66318 -0.76532,2.52292 -1.65246,5.00229 -2.66144,7.43805 -1.00891,2.43582 -2.13476,4.81628 -3.37759,7.14145 -1.24283,2.32516 -2.59662,4.5838 -4.06137,6.77597 -1.46475,2.19217 -3.03339,4.30725 -4.70596,6.34527 -1.67258,2.038 -3.44098,3.98914 -5.30524,5.85343 -1.86429,1.86426 -3.81543,3.63266 -5.85343,5.30524 -2.03802,1.67257 -4.1531,3.24121 -6.34527,4.70596 -2.19217,1.46475 -4.45081,2.81854 -6.77597,4.06137 -2.32517,1.24283 -4.70563,2.36868 -7.14145,3.37759 -2.43576,1.00898 -4.91513,1.89612 -7.43805,2.66144 -2.52298,0.76535 -5.07736,1.40518 -7.66318,1.9195 -2.58581,0.51437 -5.19061,0.90075 -7.81439,1.15918 C 293.2666,368.37079 290.63647,368.5 288,368.5 c -2.63647,0 -5.2666,-0.12921 -7.89041,-0.38763 -2.62375,-0.25843 -5.22855,-0.64481 -7.81436,-1.15918 -2.58582,-0.51432 -5.1402,-1.15415 -7.66315,-1.9195 -2.52295,-0.76532 -5.00232,-1.65246 -7.43811,-2.66144 -2.43578,-1.00891 -4.81625,-2.13476 -7.14142,-3.37759 -2.32515,-1.24283 -4.58382,-2.59662 -6.77598,-4.06137 -2.19213,-1.46475 -4.30721,-3.03339 -6.34523,-4.70596 -2.03801,-1.67258 -3.98917,-3.44098 -5.85344,-5.30524 -1.86426,-1.86429 -3.63268,-3.81543 -5.30526,-5.85343 -1.67256,-2.03802 -3.24121,-4.1531 -4.70597,-6.34527 -1.46474,-2.19217 -2.81852,-4.45081 -4.06134,-6.77597 -1.24282,-2.32517 -2.3687,-4.70563 -3.37764,-7.14145 -1.00893,-2.43576 -1.89606,-4.91513 -2.6614,-7.43805 -0.76533,-2.52298 -1.40516,-5.07736 -1.91952,-7.66318 -0.51433,-2.58581 -0.90071,-5.19061 -1.15914,-7.81439 -0.2584,-2.62375 -0.38761,-5.25388 -0.38763,-7.89035 2e-5,-2.63647 0.12923,-5.2666 0.38763,-7.89041 0.25843,-2.62375 0.64481,-5.22855 1.15914,-7.81436 0.51436,-2.58582 1.1542,-5.1402 1.91954,-7.66315 0.76532,-2.52295 1.65245,-5.00232 2.66138,-7.43811 1.00894,-2.43578 2.13482,-4.81625 3.37764,-7.14142 1.24282,-2.32515 2.5966,-4.58382 4.06134,-6.77598 1.46476,-2.19213 3.03341,-4.30721 4.70597,-6.34523 1.67258,-2.03801 3.441,-3.98917 5.30526,-5.85344 1.86427,-1.86426 3.81543,-3.63268 5.85344,-5.30526 2.03802,-1.67256 4.1531,-3.24121 6.34523,-4.70597 2.19216,-1.46474 4.45083,-2.81852 6.77598,-4.06134 2.32517,-1.24282 4.70564,-2.3687 7.14142,-3.37764 2.43579,-1.00893 4.91516,-1.89606 7.43811,-2.6614 2.52295,-0.76533 5.07733,-1.40516 7.66315,-1.91952 2.58581,-0.51433 5.19061,-0.90071 7.81436,-1.15914 2.62381,-0.2584 5.25394,-0.38761 7.89041,-0.38763 2.63647,2e-5 5.2666,0.12923 7.89035,0.38763 2.62378,0.25843 5.22858,0.64481 7.81439,1.15914 2.58582,0.51436 5.1402,1.1542 7.66318,1.91954 2.52292,0.76532 5.00229,1.65245 7.43805,2.66138 2.43582,1.00894 4.81628,2.13482 7.14145,3.37764 2.32516,1.24282 4.5838,2.5966 6.77597,4.06134 2.19217,1.46476 4.30725,3.03341 6.34527,4.70597 2.038,1.67258 3.98914,3.441 5.85343,5.30526 1.86426,1.86427 3.63266,3.81543 5.30524,5.85344 1.67257,2.03802 3.24121,4.1531 4.70596,6.34523 1.46475,2.19216 2.81854,4.45083 4.06137,6.77598 1.24283,2.32517 2.36868,4.70564 3.37759,7.14142 1.00898,2.43579 1.89612,4.91516 2.66144,7.43811 0.76535,2.52295 1.40518,5.07733 1.9195,7.66315 0.51437,2.58581 0.90075,5.19061 1.15918,7.81436 C 368.37079,282.7334 368.5,285.36353 368.5,288 Z" />
        </g>
      </g>
    </g>
  </g>
</svg>
